<svg xmlns="http://www.w3.org/2000/svg" xmlns:xlink="http://www.w3.org/1999/xlink" width="256" zoomAndPan="magnify" viewBox="0 0 192 191.999996" height="256" preserveAspectRatio="xMidYMid meet" version="1.2"><defs><clipPath id="28f2613507"><path d="M 0.359375 127 L 34 127 L 34 160 L 0.359375 160 Z M 0.359375 127 "/></clipPath></defs><g id="3e2102782a"><path style=" stroke:none;fill-rule:nonzero;fill:#fafafa;fill-opacity:1;" d="M 145.679688 96.519531 C 133.472656 108.722656 119.5625 118.820312 105.359375 125.789062 L 65.785156 86.214844 C 72.753906 72.011719 82.851562 58.097656 95.054688 45.894531 C 109.007812 31.941406 124.765625 21.128906 140.40625 14.277344 L 177.300781 51.167969 C 170.445312 66.808594 159.632812 82.5625 145.679688 96.519531 Z M 95.488281 152.800781 C 95.941406 152.316406 96.402344 151.824219 96.871094 151.355469 C 102.699219 145.527344 106.375 137.867188 107.28125 129.703125 C 117.441406 124.714844 127.449219 118.183594 136.8125 110.460938 C 133.546875 132.074219 116.890625 149.039062 95.488281 152.800781 Z M 50.769531 147.308594 L 44.402344 147.308594 L 44.402344 141.21875 C 44.402344 129.03125 51.347656 117.976562 62.222656 112.652344 L 79.246094 129.679688 C 73.886719 140.4375 62.867188 147.308594 50.769531 147.308594 Z M 88.328125 132.589844 L 58.984375 103.246094 C 60.285156 99.007812 61.910156 94.710938 63.820312 90.417969 L 101.15625 127.753906 C 96.863281 129.664062 92.566406 131.285156 88.328125 132.589844 Z M 39.742188 94.226562 C 39.519531 94.453125 39.304688 94.679688 39.085938 94.90625 C 43.273438 74.164062 59.917969 58.125 81.027344 54.863281 C 73.480469 64.03125 67.078125 73.808594 62.144531 83.742188 C 53.703125 84.5 45.746094 88.222656 39.742188 94.226562 Z M 185.140625 6.429688 C 186.875 18.691406 184.65625 32.628906 179.105469 46.804688 L 144.765625 12.46875 C 158.945312 6.914062 172.882812 4.699219 185.140625 6.429688 Z M 182.070312 51.066406 C 189.101562 34.238281 191.566406 18.015625 189.203125 4.15625 C 189.046875 3.242188 188.332031 2.527344 187.417969 2.371094 C 173.554688 0.00390625 157.335938 2.472656 140.507812 9.503906 C 140.378906 9.558594 140.253906 9.613281 140.125 9.667969 C 140.09375 9.679688 140.0625 9.695312 140.03125 9.707031 C 123.078125 16.875 106.46875 28.3125 91.972656 42.808594 C 89.625 45.15625 87.359375 47.5625 85.171875 50.023438 C 71.753906 50.925781 59.175781 56.671875 49.6875 66.25 C 40.039062 75.996094 34.378906 88.902344 33.761719 102.59375 C 33.761719 102.59375 33.761719 102.597656 33.761719 102.601562 C 33.757812 102.65625 33.757812 102.710938 33.761719 102.761719 C 33.761719 102.78125 33.761719 102.800781 33.761719 102.824219 C 33.765625 102.863281 33.769531 102.898438 33.773438 102.9375 C 33.800781 103.183594 33.867188 103.414062 33.96875 103.625 C 33.972656 103.628906 33.972656 103.632812 33.972656 103.636719 C 33.992188 103.671875 34.011719 103.707031 34.03125 103.738281 C 34.046875 103.769531 34.058594 103.796875 34.078125 103.828125 C 34.082031 103.835938 34.089844 103.847656 34.097656 103.855469 C 34.21875 104.046875 34.371094 104.21875 34.550781 104.367188 C 34.582031 104.394531 34.613281 104.421875 34.648438 104.449219 C 34.660156 104.460938 34.679688 104.46875 34.695312 104.480469 C 34.738281 104.511719 34.785156 104.539062 34.832031 104.570312 C 34.835938 104.570312 34.835938 104.570312 34.839844 104.574219 C 34.851562 104.582031 34.867188 104.589844 34.878906 104.59375 C 34.925781 104.621094 34.972656 104.648438 35.023438 104.671875 C 35.050781 104.679688 35.074219 104.691406 35.101562 104.703125 C 35.140625 104.71875 35.179688 104.734375 35.21875 104.75 C 35.257812 104.761719 35.292969 104.773438 35.328125 104.78125 C 35.359375 104.792969 35.390625 104.800781 35.421875 104.808594 C 35.46875 104.820312 35.515625 104.828125 35.566406 104.835938 C 35.585938 104.839844 35.609375 104.847656 35.628906 104.851562 C 35.6875 104.859375 35.746094 104.863281 35.804688 104.867188 C 35.816406 104.867188 35.828125 104.867188 35.839844 104.871094 C 35.84375 104.871094 35.847656 104.871094 35.851562 104.871094 C 35.867188 104.871094 35.882812 104.871094 35.894531 104.871094 C 35.910156 104.871094 35.925781 104.871094 35.941406 104.871094 C 35.960938 104.871094 35.976562 104.871094 35.996094 104.867188 C 36.039062 104.867188 36.078125 104.867188 36.121094 104.863281 C 36.15625 104.859375 36.1875 104.855469 36.222656 104.851562 C 36.257812 104.847656 36.289062 104.84375 36.324219 104.835938 C 36.363281 104.828125 36.398438 104.820312 36.4375 104.8125 C 36.464844 104.804688 36.496094 104.800781 36.523438 104.792969 C 36.5625 104.78125 36.601562 104.769531 36.640625 104.753906 C 36.667969 104.746094 36.695312 104.734375 36.722656 104.726562 C 36.757812 104.710938 36.792969 104.695312 36.828125 104.679688 C 36.859375 104.667969 36.886719 104.652344 36.917969 104.640625 C 36.945312 104.625 36.976562 104.609375 37.007812 104.589844 C 37.039062 104.570312 37.070312 104.554688 37.101562 104.535156 C 37.125 104.519531 37.152344 104.503906 37.175781 104.488281 C 37.207031 104.460938 37.242188 104.4375 37.273438 104.414062 C 37.296875 104.398438 37.316406 104.382812 37.335938 104.363281 C 37.367188 104.335938 37.402344 104.308594 37.433594 104.28125 C 37.453125 104.261719 37.472656 104.238281 37.492188 104.21875 C 37.519531 104.191406 37.550781 104.164062 37.574219 104.132812 C 37.601562 104.101562 37.625 104.070312 37.648438 104.039062 C 37.667969 104.019531 37.6875 103.996094 37.703125 103.972656 C 37.75 103.910156 37.789062 103.851562 37.824219 103.785156 C 39.199219 101.4375 40.882812 99.257812 42.828125 97.3125 C 47.488281 92.652344 53.484375 89.554688 59.929688 88.429688 C 57.714844 93.382812 55.867188 98.351562 54.429688 103.234375 C 54.40625 103.308594 54.390625 103.386719 54.375 103.460938 C 54.371094 103.492188 54.367188 103.523438 54.363281 103.558594 C 54.355469 103.59375 54.351562 103.628906 54.347656 103.667969 C 54.34375 103.710938 54.339844 103.757812 54.339844 103.804688 C 54.339844 103.828125 54.335938 103.851562 54.335938 103.875 C 54.339844 103.921875 54.339844 103.972656 54.34375 104.015625 C 54.347656 104.039062 54.347656 104.066406 54.347656 104.089844 C 54.351562 104.128906 54.359375 104.171875 54.367188 104.214844 C 54.371094 104.242188 54.375 104.273438 54.382812 104.300781 C 54.386719 104.335938 54.398438 104.371094 54.40625 104.40625 C 54.417969 104.4375 54.425781 104.472656 54.433594 104.507812 C 54.441406 104.539062 54.453125 104.566406 54.464844 104.59375 C 54.476562 104.632812 54.492188 104.671875 54.507812 104.710938 C 54.515625 104.734375 54.527344 104.757812 54.539062 104.78125 C 54.558594 104.820312 54.578125 104.859375 54.597656 104.902344 C 54.613281 104.921875 54.625 104.945312 54.636719 104.96875 C 54.660156 105.007812 54.683594 105.046875 54.707031 105.082031 C 54.726562 105.113281 54.75 105.140625 54.773438 105.171875 C 54.792969 105.199219 54.8125 105.226562 54.832031 105.25 C 54.878906 105.308594 54.933594 105.363281 54.984375 105.417969 L 58.980469 109.414062 C 47.378906 115.695312 40.039062 127.859375 40.039062 141.21875 L 40.039062 149.492188 C 40.039062 150.695312 41.015625 151.671875 42.222656 151.671875 L 50.769531 151.671875 C 64.039062 151.671875 76.164062 144.402344 82.476562 132.90625 L 86.148438 136.578125 C 86.152344 136.582031 86.15625 136.585938 86.15625 136.589844 L 86.164062 136.597656 C 86.171875 136.601562 86.175781 136.605469 86.179688 136.609375 C 86.222656 136.652344 86.265625 136.691406 86.3125 136.726562 C 86.328125 136.742188 86.347656 136.757812 86.363281 136.773438 C 86.398438 136.796875 86.433594 136.824219 86.46875 136.847656 C 86.488281 136.863281 86.511719 136.878906 86.535156 136.890625 C 86.566406 136.914062 86.605469 136.9375 86.640625 136.957031 C 86.664062 136.96875 86.6875 136.984375 86.710938 136.996094 C 86.761719 137.023438 86.816406 137.046875 86.871094 137.070312 C 86.894531 137.078125 86.917969 137.089844 86.945312 137.097656 C 86.980469 137.109375 87.019531 137.125 87.054688 137.136719 C 87.082031 137.144531 87.105469 137.148438 87.128906 137.15625 C 87.171875 137.167969 87.210938 137.179688 87.253906 137.1875 C 87.273438 137.191406 87.296875 137.195312 87.316406 137.203125 C 87.367188 137.210938 87.417969 137.21875 87.472656 137.222656 C 87.484375 137.226562 87.496094 137.226562 87.507812 137.226562 C 87.574219 137.234375 87.640625 137.238281 87.707031 137.238281 C 87.769531 137.238281 87.835938 137.234375 87.898438 137.226562 C 87.914062 137.226562 87.929688 137.226562 87.941406 137.222656 C 87.992188 137.21875 88.039062 137.210938 88.089844 137.203125 C 88.109375 137.199219 88.125 137.195312 88.144531 137.191406 C 88.203125 137.179688 88.261719 137.167969 88.320312 137.148438 C 88.324219 137.148438 88.332031 137.148438 88.335938 137.144531 C 93.019531 135.765625 97.78125 134.011719 102.53125 131.917969 C 101.304688 138.078125 98.265625 143.792969 93.785156 148.273438 C 93.203125 148.855469 92.648438 149.449219 92.117188 150.019531 C 90.722656 151.515625 89.40625 152.925781 87.859375 153.828125 C 87.859375 153.832031 87.855469 153.832031 87.851562 153.835938 C 87.804688 153.863281 87.761719 153.894531 87.714844 153.925781 C 87.699219 153.933594 87.683594 153.945312 87.667969 153.957031 C 87.632812 153.980469 87.601562 154.007812 87.570312 154.035156 C 87.390625 154.183594 87.238281 154.355469 87.117188 154.546875 C 87.113281 154.558594 87.105469 154.566406 87.097656 154.578125 C 87.082031 154.605469 87.066406 154.632812 87.050781 154.664062 C 87.03125 154.699219 87.011719 154.730469 86.996094 154.765625 C 86.992188 154.769531 86.992188 154.773438 86.988281 154.777344 C 86.890625 154.992188 86.824219 155.222656 86.796875 155.464844 C 86.792969 155.503906 86.785156 155.542969 86.785156 155.582031 C 86.78125 155.601562 86.785156 155.621094 86.78125 155.640625 C 86.78125 155.695312 86.78125 155.75 86.78125 155.804688 C 86.78125 155.804688 86.78125 155.808594 86.78125 155.8125 C 86.78125 155.828125 86.785156 155.847656 86.785156 155.863281 C 86.789062 155.914062 86.792969 155.964844 86.800781 156.015625 C 86.804688 156.042969 86.808594 156.066406 86.816406 156.097656 C 86.824219 156.136719 86.832031 156.179688 86.839844 156.222656 C 86.847656 156.257812 86.859375 156.296875 86.871094 156.332031 C 86.878906 156.363281 86.886719 156.390625 86.898438 156.421875 C 86.917969 156.476562 86.9375 156.527344 86.960938 156.578125 C 86.964844 156.59375 86.972656 156.605469 86.976562 156.617188 C 87.042969 156.765625 87.128906 156.902344 87.226562 157.03125 C 87.242188 157.050781 87.253906 157.070312 87.269531 157.089844 C 87.3125 157.140625 87.359375 157.191406 87.40625 157.238281 C 87.421875 157.253906 87.433594 157.269531 87.449219 157.285156 C 87.507812 157.339844 87.570312 157.390625 87.632812 157.441406 C 87.65625 157.460938 87.675781 157.472656 87.699219 157.488281 C 87.75 157.523438 87.800781 157.558594 87.851562 157.585938 C 87.875 157.601562 87.894531 157.613281 87.914062 157.625 C 88.0625 157.707031 88.21875 157.769531 88.386719 157.816406 C 88.40625 157.820312 88.425781 157.824219 88.445312 157.828125 C 88.507812 157.847656 88.574219 157.859375 88.640625 157.867188 C 88.664062 157.871094 88.683594 157.875 88.707031 157.878906 C 88.789062 157.886719 88.867188 157.894531 88.953125 157.894531 C 88.957031 157.894531 88.957031 157.894531 88.964844 157.894531 C 88.964844 157.894531 88.96875 157.894531 88.972656 157.894531 C 89.003906 157.894531 89.03125 157.894531 89.058594 157.890625 C 102.75 157.273438 115.660156 151.613281 125.402344 141.964844 C 135.015625 132.4375 140.769531 119.800781 141.640625 106.324219 C 144.066406 104.160156 146.449219 101.921875 148.765625 99.601562 C 163.269531 85.097656 174.710938 68.476562 181.878906 51.515625 C 181.886719 51.496094 181.894531 51.476562 181.902344 51.460938 C 181.957031 51.328125 182.015625 51.199219 182.070312 51.066406 "/><path style=" stroke:none;fill-rule:nonzero;fill:#fafafa;fill-opacity:1;" d="M 92.707031 95.78125 L 91.972656 96.519531 C 91.121094 97.371094 91.121094 98.75 91.972656 99.601562 C 92.398438 100.027344 92.957031 100.242188 93.515625 100.242188 C 94.070312 100.242188 94.628906 100.027344 95.054688 99.601562 L 95.792969 98.867188 C 96.644531 98.011719 96.644531 96.632812 95.792969 95.78125 C 94.941406 94.929688 93.558594 94.929688 92.707031 95.78125 "/><path style=" stroke:none;fill-rule:nonzero;fill:#fafafa;fill-opacity:1;" d="M 100.578125 87.910156 L 98.09375 90.394531 C 97.238281 91.25 97.238281 92.628906 98.09375 93.480469 C 98.519531 93.90625 99.074219 94.121094 99.632812 94.121094 C 100.195312 94.121094 100.75 93.90625 101.175781 93.480469 L 103.664062 90.996094 C 104.515625 90.144531 104.515625 88.765625 103.664062 87.910156 C 102.8125 87.058594 101.429688 87.058594 100.578125 87.910156 "/><path style=" stroke:none;fill-rule:nonzero;fill:#fafafa;fill-opacity:1;" d="M 111.855469 76.636719 L 106.332031 82.160156 C 105.480469 83.011719 105.480469 84.390625 106.332031 85.242188 C 106.757812 85.667969 107.316406 85.882812 107.875 85.882812 C 108.429688 85.882812 108.988281 85.667969 109.414062 85.242188 L 114.9375 79.722656 C 115.789062 78.867188 115.789062 77.488281 114.9375 76.636719 C 114.085938 75.785156 112.703125 75.785156 111.855469 76.636719 "/><path style=" stroke:none;fill-rule:nonzero;fill:#fafafa;fill-opacity:1;" d="M 143.609375 65.867188 C 138.671875 70.800781 130.644531 70.800781 125.707031 65.867188 C 120.773438 60.933594 120.773438 52.898438 125.707031 47.964844 C 128.175781 45.496094 131.414062 44.265625 134.660156 44.265625 C 137.898438 44.265625 141.140625 45.496094 143.609375 47.964844 C 146 50.355469 147.316406 53.535156 147.316406 56.917969 C 147.316406 60.296875 146 63.476562 143.609375 65.867188 Z M 146.691406 44.878906 C 140.058594 38.242188 129.257812 38.242188 122.621094 44.878906 C 115.984375 51.515625 115.984375 62.316406 122.621094 68.953125 C 125.941406 72.269531 130.300781 73.929688 134.660156 73.929688 C 139.015625 73.929688 143.375 72.269531 146.691406 68.953125 C 153.328125 62.316406 153.328125 51.515625 146.691406 44.878906 "/><path style=" stroke:none;fill-rule:nonzero;fill:#fafafa;fill-opacity:1;" d="M 15.402344 124.4375 C 15.960938 124.4375 16.519531 124.222656 16.945312 123.796875 L 29.734375 111.007812 C 30.585938 110.15625 30.585938 108.777344 29.734375 107.925781 C 28.882812 107.070312 27.503906 107.070312 26.648438 107.925781 L 13.859375 120.714844 C 13.007812 121.566406 13.007812 122.945312 13.859375 123.796875 C 14.285156 124.222656 14.84375 124.4375 15.402344 124.4375 "/><g clip-rule="nonzero" clip-path="url(#28f2613507)"><path style=" stroke:none;fill-rule:nonzero;fill:#fafafa;fill-opacity:1;" d="M 32.371094 131.023438 C 33.222656 130.171875 33.222656 128.789062 32.371094 127.9375 C 31.519531 127.085938 30.136719 127.085938 29.285156 127.9375 L 1.265625 155.957031 C 0.414062 156.808594 0.414062 158.191406 1.265625 159.042969 C 1.691406 159.46875 2.25 159.679688 2.808594 159.679688 C 3.367188 159.679688 3.925781 159.46875 4.351562 159.042969 L 32.371094 131.023438 "/></g><path style=" stroke:none;fill-rule:nonzero;fill:#fafafa;fill-opacity:1;" d="M 60.527344 160.742188 L 32.996094 188.273438 C 32.144531 189.125 32.144531 190.503906 32.996094 191.355469 C 33.421875 191.785156 33.980469 191.996094 34.539062 191.996094 C 35.097656 191.996094 35.65625 191.785156 36.082031 191.355469 L 63.613281 163.824219 C 64.464844 162.972656 64.464844 161.59375 63.613281 160.742188 C 62.761719 159.890625 61.378906 159.890625 60.527344 160.742188 "/><path style=" stroke:none;fill-rule:nonzero;fill:#fafafa;fill-opacity:1;" d="M 79.761719 163.378906 L 68.726562 174.410156 C 67.875 175.261719 67.875 176.640625 68.726562 177.492188 C 69.152344 177.917969 69.710938 178.132812 70.269531 178.132812 C 70.828125 178.132812 71.386719 177.917969 71.8125 177.492188 L 82.84375 166.460938 C 83.695312 165.609375 83.695312 164.226562 82.84375 163.378906 C 81.992188 162.523438 80.613281 162.523438 79.761719 163.378906 "/><path style=" stroke:none;fill-rule:nonzero;fill:#fafafa;fill-opacity:1;" d="M 36.308594 155.242188 C 35.457031 154.390625 34.074219 154.390625 33.222656 155.242188 L 4.78125 183.683594 C 3.929688 184.535156 3.929688 185.917969 4.78125 186.769531 C 5.207031 187.195312 5.765625 187.40625 6.324219 187.40625 C 6.882812 187.40625 7.441406 187.195312 7.867188 186.769531 L 36.308594 158.324219 C 37.160156 157.472656 37.160156 156.09375 36.308594 155.242188 "/></g></svg>