<svg xmlns="http://www.w3.org/2000/svg" xmlns:xlink="http://www.w3.org/1999/xlink" width="512" zoomAndPan="magnify" viewBox="0 0 384 383.999986" height="512" preserveAspectRatio="xMidYMid meet" version="1.2"><defs><clipPath id="e8e1cbd14a"><path d="M 384 27.75 L 384 356.25 C 384 363.609375 381.078125 370.667969 375.871094 375.871094 C 370.667969 381.078125 363.609375 384 356.25 384 L 27.75 384 C 20.390625 384 13.332031 381.078125 8.128906 375.871094 C 2.921875 370.667969 0 363.609375 0 356.25 L 0 27.75 C 0 20.390625 2.921875 13.332031 8.128906 8.128906 C 13.332031 2.921875 20.390625 0 27.75 0 L 356.25 0 C 363.609375 0 370.667969 2.921875 375.871094 8.128906 C 381.078125 13.332031 384 20.390625 384 27.75 Z M 384 27.75 "/></clipPath><clipPath id="0d8ec4d672"><path d="M 384 27.75 L 384 356.25 C 384 363.609375 381.078125 370.667969 375.871094 375.871094 C 370.667969 381.078125 363.609375 384 356.25 384 L 27.75 384 C 20.390625 384 13.332031 381.078125 8.128906 375.871094 C 2.921875 370.667969 0 363.609375 0 356.25 L 0 27.75 C 0 20.390625 2.921875 13.332031 8.128906 8.128906 C 13.332031 2.921875 20.390625 0 27.75 0 L 356.25 0 C 363.609375 0 370.667969 2.921875 375.871094 8.128906 C 381.078125 13.332031 384 20.390625 384 27.75 Z M 384 27.75 "/></clipPath><clipPath id="a05221de88"><rect x="0" width="384" y="0" height="384"/></clipPath><clipPath id="3e6104c536"><path d="M 95.480469 53.125 L 288.230469 53.125 L 288.230469 330.625 L 95.480469 330.625 Z M 95.480469 53.125 "/></clipPath></defs><g id="8c7d047ca9"><g clip-rule="nonzero" clip-path="url(#e8e1cbd14a)"><g><g clip-path="url(#a05221de88)"><g clip-rule="nonzero" clip-path="url(#0d8ec4d672)"><rect x="0" width="384" height="384" y="0" style="fill:#fafafa;fill-opacity:1;stroke:none;"/></g></g></g></g><g clip-rule="nonzero" clip-path="url(#3e6104c536)"><path style=" stroke:none;fill-rule:nonzero;fill:#3f3f47;fill-opacity:1;" d="M 274.261719 53.125 L 109.730469 53.125 C 101.90625 53.125 95.492188 59.539062 95.492188 67.363281 L 95.492188 316.628906 C 95.492188 324.457031 101.90625 330.871094 109.730469 330.871094 L 274.261719 330.871094 C 282.085938 330.871094 288.5 324.457031 288.5 316.628906 L 288.5 67.363281 C 288.5 59.539062 282.085938 53.125 274.261719 53.125 Z M 283.792969 316.628906 C 283.792969 321.867188 279.5 326.164062 274.261719 326.164062 L 109.730469 326.164062 C 104.496094 326.164062 100.199219 321.867188 100.199219 316.628906 L 100.199219 67.363281 C 100.199219 62.128906 104.496094 57.832031 109.730469 57.832031 L 274.261719 57.832031 C 279.5 57.832031 283.792969 62.128906 283.792969 67.363281 Z M 283.792969 316.628906 "/></g><path style=" stroke:none;fill-rule:nonzero;fill:#3f3f47;fill-opacity:1;" d="M 121.382812 184.9375 L 173.167969 184.9375 C 174.460938 184.9375 175.519531 183.875 175.519531 182.582031 L 175.519531 121.382812 C 175.519531 120.089844 174.460938 119.03125 173.167969 119.03125 L 121.382812 119.03125 C 120.089844 119.03125 119.03125 120.089844 119.03125 121.382812 L 119.03125 182.582031 C 119.03125 183.875 120.089844 184.9375 121.382812 184.9375 Z M 147.273438 151.984375 C 142.097656 151.984375 137.859375 147.746094 137.859375 142.566406 C 137.859375 137.390625 142.097656 133.152344 147.273438 133.152344 C 152.453125 133.152344 156.691406 137.390625 156.691406 142.566406 C 156.691406 147.746094 152.453125 151.984375 147.273438 151.984375 Z M 151.394531 156.691406 C 156.925781 156.691406 161.398438 161.164062 161.398438 166.695312 L 161.398438 180.226562 L 133.152344 180.226562 L 133.152344 166.695312 C 133.152344 161.164062 137.625 156.691406 143.15625 156.691406 Z M 123.738281 123.738281 L 170.8125 123.738281 L 170.8125 180.226562 L 166.105469 180.226562 L 166.105469 166.695312 C 166.105469 160.515625 162.222656 155.160156 156.808594 153.042969 C 159.632812 150.453125 161.398438 146.746094 161.398438 142.625 C 161.398438 134.859375 155.042969 128.503906 147.273438 128.503906 C 139.507812 128.503906 133.152344 134.859375 133.152344 142.625 C 133.152344 146.746094 134.917969 150.453125 137.742188 153.042969 C 132.269531 155.160156 128.445312 160.515625 128.445312 166.695312 L 128.445312 180.226562 L 123.738281 180.226562 Z M 123.738281 123.738281 "/><path style=" stroke:none;fill-rule:nonzero;fill:#3f3f47;fill-opacity:1;" d="M 123.5625 92.019531 L 127.03125 92.019531 C 130.386719 92.136719 131.917969 93.609375 132.742188 97.550781 C 133.5625 101.082031 134.152344 103.554688 134.625 104.378906 L 138.449219 104.378906 C 137.859375 103.257812 137.152344 100.492188 136.269531 96.550781 C 135.566406 93.609375 134.269531 91.550781 132.09375 90.785156 L 132.09375 90.667969 C 135.09375 89.667969 137.449219 87.136719 137.449219 83.371094 C 137.449219 81.191406 136.625 79.191406 135.210938 77.957031 C 133.445312 76.367188 130.917969 75.601562 126.972656 75.601562 C 124.441406 75.601562 121.738281 75.839844 119.914062 76.191406 L 119.914062 104.378906 L 123.621094 104.378906 L 123.621094 92.019531 Z M 123.5625 78.78125 C 124.148438 78.605469 125.445312 78.425781 127.207031 78.425781 C 131.09375 78.484375 133.800781 80.074219 133.800781 83.78125 C 133.800781 87.019531 131.328125 89.195312 127.386719 89.195312 L 123.621094 89.195312 L 123.621094 78.78125 Z M 123.5625 78.78125 "/><path style=" stroke:none;fill-rule:nonzero;fill:#3f3f47;fill-opacity:1;" d="M 158.75 101.316406 L 146.390625 101.316406 L 146.390625 91.019531 L 157.453125 91.019531 L 157.453125 87.960938 L 146.390625 87.960938 L 146.390625 78.898438 L 158.101562 78.898438 L 158.101562 75.839844 L 142.683594 75.839844 L 142.683594 104.378906 L 158.75 104.378906 Z M 158.75 101.316406 "/><path style=" stroke:none;fill-rule:nonzero;fill:#3f3f47;fill-opacity:1;" d="M 169.636719 101.789062 C 167.105469 101.789062 164.691406 100.964844 163.046875 99.90625 L 162.105469 103.023438 C 163.632812 104.023438 166.636719 104.847656 169.402344 104.847656 C 176.109375 104.847656 179.402344 101.023438 179.402344 96.609375 C 179.402344 92.433594 176.933594 90.078125 172.105469 88.195312 C 168.164062 86.664062 166.457031 85.371094 166.457031 82.664062 C 166.457031 80.722656 167.929688 78.367188 171.8125 78.367188 C 174.402344 78.367188 176.285156 79.191406 177.226562 79.722656 L 178.226562 76.71875 C 176.933594 76.015625 174.8125 75.308594 171.929688 75.308594 C 166.398438 75.308594 162.691406 78.605469 162.691406 83.074219 C 162.691406 87.078125 165.574219 89.488281 170.222656 91.195312 C 174.109375 92.667969 175.578125 94.199219 175.578125 96.84375 C 175.636719 99.789062 173.402344 101.789062 169.636719 101.789062 Z M 169.636719 101.789062 "/><path style=" stroke:none;fill-rule:nonzero;fill:#3f3f47;fill-opacity:1;" d="M 194.644531 104.847656 C 200.824219 104.847656 205.472656 101.257812 205.472656 92.492188 L 205.472656 75.839844 L 201.765625 75.839844 L 201.765625 92.726562 C 201.765625 99.023438 199.058594 101.847656 194.820312 101.847656 C 190.996094 101.847656 188.171875 99.140625 188.171875 92.726562 L 188.171875 75.839844 L 184.464844 75.839844 L 184.464844 92.667969 C 184.40625 101.492188 188.761719 104.847656 194.644531 104.847656 Z M 194.644531 104.847656 "/><path style=" stroke:none;fill-rule:nonzero;fill:#3f3f47;fill-opacity:1;" d="M 215.359375 92.136719 C 215.59375 87.84375 215.828125 83.074219 215.886719 79.484375 L 215.945312 79.484375 C 216.769531 82.898438 217.886719 86.546875 219.242188 90.609375 L 223.832031 104.199219 L 226.65625 104.199219 L 231.714844 90.371094 C 233.128906 86.429688 234.363281 82.898438 235.304688 79.546875 L 235.425781 79.546875 C 235.363281 83.074219 235.660156 87.902344 235.835938 91.902344 L 236.542969 104.4375 L 240.132812 104.4375 L 238.367188 75.898438 L 233.660156 75.898438 L 228.597656 89.726562 C 227.304688 93.316406 226.304688 96.433594 225.597656 99.316406 L 225.539062 99.316406 C 224.832031 96.375 223.832031 93.195312 222.65625 89.726562 L 217.769531 75.898438 L 213.0625 75.898438 L 211.0625 104.4375 L 214.59375 104.4375 Z M 215.359375 92.136719 "/><path style=" stroke:none;fill-rule:nonzero;fill:#3f3f47;fill-opacity:1;" d="M 261.960938 101.316406 L 249.605469 101.316406 L 249.605469 91.019531 L 260.667969 91.019531 L 260.667969 87.960938 L 249.605469 87.960938 L 249.605469 78.898438 L 261.316406 78.898438 L 261.316406 75.839844 L 245.898438 75.839844 L 245.898438 104.378906 L 261.960938 104.378906 Z M 261.960938 101.316406 "/><path style=" stroke:none;fill-rule:nonzero;fill:#3f3f47;fill-opacity:1;" d="M 262.609375 121.382812 L 201.410156 121.382812 C 198.824219 121.382812 196.703125 123.503906 196.703125 126.089844 C 196.703125 128.679688 198.824219 130.796875 201.410156 130.796875 L 262.609375 130.796875 C 265.199219 130.796875 267.316406 128.679688 267.316406 126.089844 C 267.316406 123.503906 265.199219 121.382812 262.609375 121.382812 Z M 262.609375 121.382812 "/><path style=" stroke:none;fill-rule:nonzero;fill:#3f3f47;fill-opacity:1;" d="M 201.410156 147.273438 L 234.363281 147.273438 C 235.660156 147.273438 236.71875 146.214844 236.71875 144.921875 C 236.71875 143.625 235.660156 142.566406 234.363281 142.566406 L 201.410156 142.566406 C 200.117188 142.566406 199.058594 143.625 199.058594 144.921875 C 199.058594 146.214844 200.117188 147.273438 201.410156 147.273438 Z M 201.410156 147.273438 "/><path style=" stroke:none;fill-rule:nonzero;fill:#3f3f47;fill-opacity:1;" d="M 201.410156 161.398438 L 234.363281 161.398438 C 235.660156 161.398438 236.71875 160.339844 236.71875 159.042969 C 236.71875 157.75 235.660156 156.691406 234.363281 156.691406 L 201.410156 156.691406 C 200.117188 156.691406 199.058594 157.75 199.058594 159.042969 C 199.058594 160.339844 200.117188 161.398438 201.410156 161.398438 Z M 201.410156 161.398438 "/><path style=" stroke:none;fill-rule:nonzero;fill:#3f3f47;fill-opacity:1;" d="M 201.410156 175.519531 L 234.363281 175.519531 C 235.660156 175.519531 236.71875 174.460938 236.71875 173.167969 C 236.71875 171.871094 235.660156 170.8125 234.363281 170.8125 L 201.410156 170.8125 C 200.117188 170.8125 199.058594 171.871094 199.058594 173.167969 C 199.058594 174.460938 200.117188 175.519531 201.410156 175.519531 Z M 201.410156 175.519531 "/><path style=" stroke:none;fill-rule:nonzero;fill:#3f3f47;fill-opacity:1;" d="M 116.675781 227.304688 L 215.535156 227.304688 C 216.828125 227.304688 217.886719 226.246094 217.886719 224.949219 C 217.886719 223.65625 216.828125 222.597656 215.535156 222.597656 L 116.675781 222.597656 C 115.382812 222.597656 114.320312 223.65625 114.320312 224.949219 C 114.320312 226.246094 115.382812 227.304688 116.675781 227.304688 Z M 116.675781 227.304688 "/><path style=" stroke:none;fill-rule:nonzero;fill:#3f3f47;fill-opacity:1;" d="M 116.675781 241.425781 L 215.535156 241.425781 C 216.828125 241.425781 217.886719 240.367188 217.886719 239.074219 C 217.886719 237.777344 216.828125 236.71875 215.535156 236.71875 L 116.675781 236.71875 C 115.382812 236.71875 114.320312 237.777344 114.320312 239.074219 C 114.320312 240.367188 115.382812 241.425781 116.675781 241.425781 Z M 116.675781 241.425781 "/><path style=" stroke:none;fill-rule:nonzero;fill:#3f3f47;fill-opacity:1;" d="M 116.675781 255.550781 L 215.535156 255.550781 C 216.828125 255.550781 217.886719 254.488281 217.886719 253.195312 C 217.886719 251.902344 216.828125 250.839844 215.535156 250.839844 L 116.675781 250.839844 C 115.382812 250.839844 114.320312 251.902344 114.320312 253.195312 C 114.320312 254.488281 115.382812 255.550781 116.675781 255.550781 Z M 116.675781 255.550781 "/><path style=" stroke:none;fill-rule:nonzero;fill:#3f3f47;fill-opacity:1;" d="M 116.675781 293.210938 L 206.121094 293.210938 C 207.414062 293.210938 208.472656 292.148438 208.472656 290.855469 C 208.472656 289.5625 207.414062 288.503906 206.121094 288.503906 L 116.675781 288.503906 C 115.382812 288.503906 114.320312 289.5625 114.320312 290.855469 C 114.320312 292.148438 115.382812 293.210938 116.675781 293.210938 Z M 116.675781 293.210938 "/><path style=" stroke:none;fill-rule:nonzero;fill:#3f3f47;fill-opacity:1;" d="M 257.902344 302.625 L 116.675781 302.625 C 115.382812 302.625 114.320312 303.683594 114.320312 304.976562 C 114.320312 306.273438 115.382812 307.332031 116.675781 307.332031 L 257.902344 307.332031 C 259.195312 307.332031 260.257812 306.273438 260.257812 304.976562 C 260.257812 303.683594 259.195312 302.625 257.902344 302.625 Z M 257.902344 302.625 "/><path style=" stroke:none;fill-rule:nonzero;fill:#3f3f47;fill-opacity:1;" d="M 121.382812 210.828125 L 163.75 210.828125 C 166.339844 210.828125 168.457031 208.707031 168.457031 206.121094 C 168.457031 203.53125 166.339844 201.410156 163.75 201.410156 L 121.382812 201.410156 C 118.792969 201.410156 116.675781 203.53125 116.675781 206.121094 C 116.675781 208.707031 118.792969 210.828125 121.382812 210.828125 Z M 121.382812 210.828125 "/><path style=" stroke:none;fill-rule:nonzero;fill:#3f3f47;fill-opacity:1;" d="M 121.382812 267.316406 C 118.792969 267.316406 116.675781 269.4375 116.675781 272.027344 C 116.675781 274.613281 118.792969 276.734375 121.382812 276.734375 L 163.75 276.734375 C 166.339844 276.734375 168.457031 274.613281 168.457031 272.027344 C 168.457031 269.4375 166.339844 267.316406 163.75 267.316406 Z M 121.382812 267.316406 "/></g></svg>